<?xml version="1.0" encoding="UTF-8"?>
<svg xmlns="http://www.w3.org/2000/svg" version="1.1" xmlns:xlink="http://www.w3.org/1999/xlink" viewBox="0 0 408.57 135.43">
  <defs>
    <style>
      .cls-1 {
        fill: #f28021;
      }

      .cls-2 {
        fill: url(#linear-gradient);
      }

      .cls-3 {
        fill: #2aa1db;
      }
    </style>
    <linearGradient id="linear-gradient" x1="11.77" y1="67.72" x2="106.54" y2="67.72" gradientUnits="userSpaceOnUse">
      <stop offset="0" stop-color="#ee4137"/>
      <stop offset="1" stop-color="#f59220"/>
    </linearGradient>
  </defs>
  <!-- Generator: Adobe Illustrator 28.7.1, SVG Export Plug-In . SVG Version: 1.2.0 Build 142)  -->
  <g>
    <g id="Layer_1">
      <path class="cls-2" d="M33.45,26.62c5.27-5.28,10.63-10.64,15.91-15.93,19.01,18.96,38.1,38,57.18,57.03-19.11,19.04-38.21,38.08-57.23,57.03-5.1-5.12-10.4-10.43-15.62-15.68.96-.07,2.19-.11,3.4-.24,9.57-.99,17.82-4.85,24.7-11.57,1.76-1.72,3.1-3.76,3.8-6.18.7-2.41.24-4.58-1.26-6.49-2.84-3.61-6.58-5.02-11.1-4.04-2.23.48-4.27,1.41-6.01,2.98-11.88,10.74-30.8,5.05-34.78-10.45-3.12-12.12,5.16-24.55,17.5-26.19,6.7-.89,12.42,1.17,17.6,5.5,4.51,3.77,11.23,4.69,15.96-.22,2.35-2.44,3.04-5.25,1.79-8.47-.81-2.07-2.05-3.86-3.62-5.38-6.48-6.27-14.2-10.06-23.16-11.26-1.73-.23-3.48-.32-5.05-.46Z"/>
      <path class="cls-3" d="M120.25,47.68v-.12c0-11.97,9.02-21.78,21.96-21.78,6.32,0,10.59,1.68,14.07,4.27.96.72,1.81,2.05,1.81,3.67,0,2.53-2.05,4.51-4.57,4.51-1.26,0-2.1-.48-2.77-.9-2.59-1.93-5.29-3.01-8.6-3.01-7.1,0-12.21,5.9-12.21,13.12v.12c0,7.22,4.99,13.23,12.21,13.23,3.91,0,6.5-1.2,9.14-3.31.72-.6,1.68-1.02,2.77-1.02,2.35,0,4.33,1.92,4.33,4.27,0,1.44-.72,2.59-1.56,3.31-3.79,3.31-8.24,5.3-14.98,5.3-12.39,0-21.6-9.57-21.6-21.66Z"/>
      <path class="cls-3" d="M165.87,30.78c0-2.59,2.04-4.63,4.63-4.63s4.63,2.04,4.63,4.63v29.41h17.14c2.35,0,4.21,1.87,4.21,4.21s-1.87,4.21-4.21,4.21h-21.78c-2.59,0-4.63-2.05-4.63-4.63V30.78Z"/>
      <path class="cls-3" d="M200.11,62.66l14.68-33.15c1.02-2.29,2.89-3.67,5.42-3.67h.54c2.53,0,4.33,1.38,5.35,3.67l14.68,33.15c.3.66.48,1.26.48,1.86,0,2.47-1.92,4.45-4.39,4.45-2.17,0-3.61-1.27-4.45-3.19l-2.83-6.62h-18.53l-2.95,6.92c-.78,1.8-2.35,2.89-4.27,2.89-2.41,0-4.27-1.93-4.27-4.33,0-.66.24-1.32.54-1.98ZM226.16,50.99l-5.83-13.9-5.83,13.9h11.67Z"/>
      <path class="cls-3" d="M247.89,31.14c0-2.59,2.04-4.63,4.63-4.63h14.62c5.35,0,9.51,1.5,12.27,4.27,2.35,2.35,3.61,5.65,3.61,9.63v.12c0,6.62-3.31,10.71-8.42,12.81l6.43,7.82c.9,1.14,1.5,2.1,1.5,3.55,0,2.59-2.17,4.27-4.39,4.27-2.11,0-3.49-1.02-4.57-2.41l-9.02-11.43h-7.4v9.2c0,2.58-2.05,4.63-4.63,4.63s-4.63-2.05-4.63-4.63V31.14ZM266.54,46.96c4.51,0,7.1-2.4,7.1-5.95v-.12c0-3.97-2.77-6.02-7.28-6.02h-9.2v12.09h9.38Z"/>
      <path class="cls-3" d="M291.16,30.78c0-2.59,2.05-4.63,4.63-4.63s4.63,2.04,4.63,4.63v33.57c0,2.58-2.05,4.63-4.63,4.63s-4.63-2.05-4.63-4.63V30.78Z"/>
      <path class="cls-3" d="M308.43,47.68v-.12c0-11.97,9.45-21.78,22.44-21.78s22.32,9.68,22.32,21.66v.12c0,11.97-9.45,21.78-22.44,21.78s-22.32-9.68-22.32-21.66ZM343.5,47.68v-.12c0-7.22-5.29-13.23-12.75-13.23s-12.63,5.9-12.63,13.12v.12c0,7.22,5.29,13.23,12.75,13.23s12.63-5.9,12.63-13.12Z"/>
      <path class="cls-3" d="M360.79,30.9c0-2.58,2.05-4.63,4.63-4.63h.96c2.23,0,3.55,1.08,4.82,2.71l17.86,23.46v-21.72c0-2.53,2.05-4.57,4.57-4.57s4.57,2.04,4.57,4.57v33.51c0,2.59-2.04,4.63-4.63,4.63h-.3c-2.23,0-3.55-1.08-4.81-2.71l-18.53-24.3v22.56c0,2.53-2.05,4.57-4.57,4.57s-4.57-2.05-4.57-4.57V30.9Z"/>
      <path class="cls-1" d="M131.66,83.29h-5.06c-1.33,0-2.43-1.1-2.43-2.43s1.09-2.43,2.43-2.43h15.39c1.33,0,2.43,1.09,2.43,2.43s-1.09,2.43-2.43,2.43h-5.06v16.65c0,1.47-1.16,2.63-2.63,2.63s-2.63-1.16-2.63-2.63v-16.65Z"/>
      <path class="cls-1" d="M147.88,99.74v-18.67c0-1.47,1.16-2.63,2.63-2.63h13.27c1.3,0,2.36,1.06,2.36,2.36s-1.06,2.32-2.36,2.32h-10.67v4.86h9.13c1.3,0,2.36,1.06,2.36,2.36s-1.06,2.33-2.36,2.33h-9.13v5.03h10.84c1.3,0,2.36,1.06,2.36,2.36s-1.06,2.33-2.36,2.33h-13.44c-1.47,0-2.63-1.16-2.63-2.63Z"/>
      <path class="cls-1" d="M169.36,90.47v-.07c0-6.81,5.13-12.38,12.48-12.38,3.59,0,6.02.96,8,2.43.55.41,1.03,1.16,1.03,2.09,0,1.44-1.16,2.56-2.6,2.56-.72,0-1.2-.27-1.57-.51-1.47-1.1-3.01-1.71-4.89-1.71-4.04,0-6.94,3.35-6.94,7.45v.07c0,4.1,2.84,7.52,6.94,7.52,2.22,0,3.69-.68,5.2-1.88.41-.34.96-.58,1.57-.58,1.33,0,2.46,1.09,2.46,2.43,0,.82-.41,1.47-.89,1.88-2.15,1.88-4.69,3.01-8.52,3.01-7.04,0-12.28-5.44-12.28-12.31Z"/>
      <path class="cls-1" d="M195.29,80.86c0-1.47,1.16-2.63,2.63-2.63s2.63,1.16,2.63,2.63v7.04h9.71v-7.04c0-1.47,1.16-2.63,2.63-2.63s2.63,1.16,2.63,2.63v19.08c0,1.47-1.16,2.63-2.63,2.63s-2.63-1.16-2.63-2.63v-7.18h-9.71v7.18c0,1.47-1.16,2.63-2.63,2.63s-2.63-1.16-2.63-2.63v-19.08Z"/>
      <path class="cls-1" d="M220.92,80.93c0-1.47,1.16-2.63,2.63-2.63h.55c1.26,0,2.02.62,2.74,1.54l10.16,13.34v-12.35c0-1.43,1.16-2.6,2.6-2.6s2.6,1.16,2.6,2.6v19.05c0,1.47-1.16,2.63-2.63,2.63h-.17c-1.27,0-2.02-.62-2.74-1.54l-10.53-13.82v12.82c0,1.44-1.16,2.6-2.6,2.6s-2.6-1.16-2.6-2.6v-19.05Z"/>
      <path class="cls-1" d="M246.51,90.47v-.07c0-6.81,5.37-12.38,12.76-12.38s12.69,5.51,12.69,12.31v.07c0,6.8-5.37,12.38-12.76,12.38s-12.69-5.51-12.69-12.31ZM266.44,90.47v-.07c0-4.1-3.01-7.52-7.25-7.52s-7.18,3.35-7.18,7.45v.07c0,4.1,3.01,7.52,7.25,7.52s7.18-3.35,7.18-7.46Z"/>
      <path class="cls-1" d="M276.27,80.86c0-1.47,1.16-2.63,2.63-2.63s2.63,1.16,2.63,2.63v16.72h9.75c1.33,0,2.39,1.06,2.39,2.39s-1.06,2.39-2.39,2.39h-12.38c-1.47,0-2.63-1.16-2.63-2.63v-18.88Z"/>
      <path class="cls-1" d="M294.64,90.47v-.07c0-6.81,5.37-12.38,12.76-12.38s12.69,5.51,12.69,12.31v.07c0,6.8-5.37,12.38-12.76,12.38s-12.69-5.51-12.69-12.31ZM314.57,90.47v-.07c0-4.1-3.01-7.52-7.25-7.52s-7.18,3.35-7.18,7.45v.07c0,4.1,3.01,7.52,7.25,7.52s7.18-3.35,7.18-7.46Z"/>
      <path class="cls-1" d="M323.34,90.47v-.07c0-6.81,5.3-12.38,12.55-12.38,3.63,0,6.02.82,8.17,2.32.51.38,1.1,1.1,1.1,2.12,0,1.44-1.16,2.6-2.6,2.6-.75,0-1.23-.27-1.61-.55-1.44-1.03-2.98-1.64-5.23-1.64-3.83,0-6.87,3.38-6.87,7.45v.07c0,4.38,3.01,7.59,7.25,7.59,1.92,0,3.63-.48,4.96-1.44v-3.42h-3.56c-1.27,0-2.29-.99-2.29-2.26s1.03-2.29,2.29-2.29h6.02c1.47,0,2.63,1.16,2.63,2.63v5.81c0,1.54-.58,2.6-1.85,3.35-1.95,1.2-4.79,2.39-8.38,2.39-7.46,0-12.59-5.23-12.59-12.31Z"/>
      <path class="cls-1" d="M351.08,80.86c0-1.47,1.16-2.63,2.63-2.63s2.63,1.16,2.63,2.63v19.08c0,1.47-1.16,2.63-2.63,2.63s-2.63-1.16-2.63-2.63v-19.08Z"/>
      <path class="cls-1" d="M361.96,99.74v-18.67c0-1.47,1.16-2.63,2.63-2.63h13.27c1.3,0,2.36,1.06,2.36,2.36s-1.06,2.32-2.36,2.32h-10.67v4.86h9.13c1.3,0,2.36,1.06,2.36,2.36s-1.06,2.33-2.36,2.33h-9.13v5.03h10.84c1.3,0,2.36,1.06,2.36,2.36s-1.06,2.33-2.36,2.33h-13.44c-1.47,0-2.63-1.16-2.63-2.63Z"/>
      <path class="cls-1" d="M384.03,99.84c-.58-.41-.99-1.16-.99-1.99,0-1.37,1.1-2.43,2.46-2.43.68,0,1.16.24,1.51.48,1.81,1.33,3.8,2.15,6.12,2.15,2.16,0,3.45-.85,3.45-2.26v-.07c0-1.33-.82-2.02-4.82-3.04-4.82-1.23-7.93-2.56-7.93-7.32v-.07c0-4.34,3.49-7.22,8.38-7.22,2.91,0,5.44.75,7.59,2.12.58.34,1.16,1.06,1.16,2.09,0,1.37-1.1,2.43-2.46,2.43-.51,0-.92-.14-1.33-.38-1.74-1.03-3.39-1.61-5.03-1.61-2.02,0-3.08.92-3.08,2.09v.07c0,1.57,1.03,2.09,5.16,3.15,4.86,1.26,7.59,3.01,7.59,7.18v.07c0,4.75-3.63,7.42-8.79,7.42-3.15,0-6.33-.96-8.99-2.87Z"/>
    </g>
  </g>
</svg>